<mxfile host="app.diagrams.net" modified="2024-02-26T12:13:37.622Z" agent="Mozilla/5.0 (Windows NT 10.0; Win64; x64) AppleWebKit/537.36 (KHTML, like Gecko) Chrome/120.0.0.0 Safari/537.36 OPR/106.0.0.0" version="23.1.6" etag="pSuODoS5jpVldqtfhUaR" type="github">
  <diagram name="PÃ¡gina-1" id="dkh5fb6_9sWwBKeQy3cm">
    <mxGraphModel>
      <root>
        <mxCell id="0" />
        <mxCell id="1" parent="0" />
      </root>
    </mxGraphModel>
  </diagram>
</mxfile>
